<?xml version="1.0" encoding="utf-8"?>
<!-- Generator: Adobe Illustrator 24.0.0, SVG Export Plug-In . SVG Version: 6.00 Build 0)  -->
<svg version="1.1" id="图层_1" xmlns="http://www.w3.org/2000/svg" xmlns:xlink="http://www.w3.org/1999/xlink" x="0px" y="0px"
	 viewBox="0 0 241.6 241.6" style="enable-background:new 0 0 241.6 241.6;" xml:space="preserve">
<style type="text/css">
	.st0{fill:#FFFFFF;stroke:#656565;stroke-miterlimit:10;}
	.st1{fill:#8B44AC;}
	.st2{fill:#FFFFFF;}
</style>
<g>
	<path class="st0" d="M162.2,241.3c-16.3,0-32.7,0.4-48.9-0.1c-15-0.5-29.5-3.9-43.2-10.4c-10.7-5-20.9-10.7-29.5-18.7
		c-9.9-9.2-18.8-19.5-25.3-31.6c-9.1-17-14.2-35.2-15-54.3c-0.9-20.1,3.3-39.5,11.7-58c7.1-15.8,18-28.5,30.4-39.9
		c5.9-5.4,13.3-9.4,20.3-13.5C80.4,4.5,100.1,0.3,120.4,0.2c14.2-0.1,28.6,1.7,41.9,7.3c9.3,3.9,19.1,7.4,27.2,13.1
		c13.8,9.8,25.6,21.9,34.4,36.9c9.9,16.8,15.7,34.8,17.1,54c0.9,11.6,0.5,23.3,0.4,34.9c0,21.1,0.1,42.3-0.5,63.4
		c-0.4,17.1-9.5,28.1-25.5,30.9c-6.6,1.2-13.6,0.4-20.4,0.4c-11,0-22,0-33,0C162.2,241.2,162.2,241.3,162.2,241.3z M157.5,188
		c0.3,1,0.8,1.6,0.7,2.2c-0.7,5.5,2.4,6.2,6.9,6c8.5-0.3,17-0.3,25.5,0c4.6,0.2,6.4-1,6.3-6c-0.3-23.1-0.1-46.3-0.2-69.4
		c0-4.1-0.4-8.3-1.2-12.4c-9.7-54.1-69.8-80.5-116.1-51c-16,10.2-26.5,24.7-31.9,43.2c9.1,4,14.7,10.4,14.7,20.3
		c0,10.1-5.8,16.5-14.6,20.3C56.5,178.8,104.5,214.1,157.5,188z M55,121c0-7.5-6-13.7-13.5-13.7c-7.5,0-13.7,6-13.8,13.5
		c-0.1,7.4,6.2,13.7,13.6,13.8C48.7,134.7,55,128.5,55,121z"/>
	<path class="st1" d="M157.5,188c-53,26-101-9.2-109.8-46.8c8.8-3.8,14.7-10.2,14.6-20.3c0-9.9-5.6-16.3-14.7-20.3
		c5.4-18.5,15.9-33,31.9-43.2c46.3-29.5,106.4-3.1,116.1,51c0.7,4.1,1.2,8.3,1.2,12.4c0.1,23.1-0.1,46.3,0.2,69.4
		c0.1,5-1.7,6.2-6.3,6c-8.5-0.3-17-0.3-25.5,0c-4.5,0.1-7.6-0.5-6.9-6C158.3,189.6,157.8,189,157.5,188z M83.8,120.8
		c0,20.6,16.4,37.5,36.8,37.4c17.7-0.1,37.4-13.1,37.4-39c0-18.9-17.3-35.5-37.2-35.4C100.1,83.8,83.8,100.1,83.8,120.8z"/>
	<path class="st1" d="M55,121c0,7.5-6.3,13.7-13.7,13.6c-7.4-0.1-13.7-6.4-13.6-13.8c0.1-7.5,6.3-13.6,13.8-13.5
		C49,107.3,55.1,113.5,55,121z"/>
	<path class="st2" d="M83.8,120.8c0-20.7,16.3-37,37-37c20,0,37.2,16.5,37.2,35.4c0,25.9-19.7,38.9-37.4,39
		C100.2,158.3,83.8,141.4,83.8,120.8z"/>
</g>
</svg>
